#!OML:ASF E:\emotionWalksFemale\Project 1\Capture day 1\Session 1\Female1.ASF
:FULLY-SPECIFIED
:DEGREES
469
root 8.51516 15.5071 19.7494 359.1 2.24815 0.344295
lowerback 7.81368 1.352 0.276995
upperback -3.87539 1.82141 -0.306751
thorax -8.4659 0.862482 -0.753172
lowerneck -5.40886 -4.24667 -9.24019
upperneck 6.71424 -5.59287 8.54276
head 3.37955 -2.67659 3.83406
rclavicle 5.91384e-015 -4.4975e-015
rhumerus -44.2729 13.6271 -88.84
rradius 35.4656
rwrist 21.4612
rhand 1.6747 -52.8742
rfingers 7.12502
rthumb 27.1934 -800.935
lclavicle 5.91384e-015 -4.4975e-015
lhumerus -33.2958 1.34828 75.8714
lradius 47.9857
lwrist 8.52311
lhand -7.09459 -38.7646
lfingers 7.12502
lthumb 18.7799 -9.65116
rfemur -1.32253 17.7575 27.0794
rtibia 17.1722
rfoot -18.7255 -27.4852
rtoes -6.47895
lfemur -6.64689 -19.5606 -25.8172
ltibia 23.4081
lfoot -30.824 18.7583
ltoes -29.6402
470
root 8.51495 15.5072 19.7429 358.976 2.03125 0.225702
lowerback 7.98103 1.30118 0.392507
upperback -3.81594 1.7723 -0.235871
thorax -8.49881 0.833974 -0.739305
lowerneck -5.42871 -4.12116 -9.28995
upperneck 6.82165 -5.41985 8.50297
head 3.39952 -2.59332 3.83935
rclavicle -1.84497e-014 -2.21396e-014
rhumerus -44.2839 13.249 -88.3481
rradius 35.315
rwrist 21.5644
rhand 0.828783 -52.6708
rfingers 7.12502
rthumb 26.384 -800.855
lclavicle -1.84497e-014 -2.21396e-014
lhumerus -33.0409 1.52887 75.8434
lradius 48.0404
lwrist 7.41153
lhand -6.86708 -38.5814
lfingers 7.12502
lthumb 18.9987 -9.48923
rfemur -1.00801 17.8562 27.2301
rtibia 16.6905
rfoot -18.4525 -27.5409
rtoes -6.97693
lfemur -6.70056 -19.2196 -25.6435
ltibia 23.7169
lfoot -31.7649 18.3842
ltoes -27.431
471
root 8.51546 15.5054 19.7433 358.912 1.86475 0.157978
lowerback 8.02756 1.25044 0.468093
upperback -3.78137 1.71625 -0.194769
thorax -8.48839 0.803819 -0.730439
lowerneck -5.4979 -4.06011 -9.31382
upperneck 7.0303 -5.34075 8.50357
head 3.46698 -2.55317 3.8463
rclavicle 2.02815e-014 -2.61029e-014
rhumerus -44.3343 12.5567 -87.7456
rradius 35.3147
rwrist 22.1753
rhand 0.778824 -53.1358
rfingers 7.12502
rthumb 26.3361 -801.327
lclavicle 2.02815e-014 -2.61029e-014
lhumerus -32.825 1.43598 75.8474
lradius 48.0957
lwrist 6.59812
lhand -7.07873 -38.3602
lfingers 7.12502
lthumb 18.7951 -9.24819
rfemur -0.924456 17.8016 27.2835
rtibia 16.5862
rfoot -18.5572 -27.3406
rtoes -7.15085
lfemur -6.73859 -19.0033 -25.5395
ltibia 23.7768
lfoot -30.749 18.445
ltoes -27.7824
472
root 8.51529 15.5016 19.748 358.898 1.70255 0.118339
lowerback 7.94305 1.2062 0.465526
upperback -3.7566 1.65926 -0.153876
thorax -8.41421 0.778143 -0.674543
lowerneck -5.73827 -4.02216 -9.13672
upperneck 7.45024 -5.28883 8.29239
head 3.61797 -2.52585 3.74987
rclavicle -7.26962e-015 1.30949e-014
rhumerus -44.4209 12.0872 -87.3239
rradius 35.3338
rwrist 22.1407
rhand 1.02886 -53.7413
rfingers 7.12502
rthumb 26.5755 -801.897
lclavicle -7.26962e-015 1.30949e-014
lhumerus -32.3881 1.27703 75.8641
lradius 47.7186
lwrist 5.75976
lhand -7.22991 -38.2206
lfingers 7.12502
lthumb 18.6497 -9.0946
rfemur -0.885326 17.6275 27.2966
rtibia 16.5124
rfoot -18.6383 -27.0788
rtoes -7.26008
lfemur -6.77868 -18.8831 -25.4635
ltibia 23.8094
lfoot -30.2502 18.6827
ltoes -27.8966
473
root 8.51304 15.4997 19.7547 358.852 1.5022 0.0476669
lowerback 7.83532 1.16868 0.415113
upperback -3.70267 1.61021 -0.0528336
thorax -8.29794 0.761115 -0.528663
lowerneck -5.65828 -3.90035 -8.97848
upperneck 7.53054 -5.1226 7.99797
head 3.6024 -2.4535 3.64404
rclavicle 2.38355e-014 -7.33018e-015
rhumerus -44.3752 11.8744 -86.9833
rradius 35.0831
rwrist 21.6503
rhand 0.849026 -54.0361
rfingers 7.12502
rthumb 26.4033 -802.218
lclavicle 2.38355e-014 -7.33018e-015
lhumerus -32.1139 1.56034 75.8703
lradius 47.4579
lwrist 4.48241
lhand -7.07727 -38.1519
lfingers 7.12502
lthumb 18.7965 -9.04009
rfemur -0.79633 17.6269 27.3948
rtibia 16.4501
rfoot -18.6463 -27.008
rtoes -7.7811
lfemur -6.70955 -18.5685 -25.3607
ltibia 23.8337
lfoot -30.1538 18.6113
ltoes -26.7755
474
root 8.51109 15.4973 19.761 358.764 1.30565 -0.0207021
lowerback 7.85212 1.12921 0.41731
upperback -3.68629 1.56275 0.0150604
thorax -8.29242 0.739984 -0.451343
lowerneck -5.68889 -3.79123 -8.79471
upperneck 7.76347 -4.97557 7.72059
head 3.65336 -2.38694 3.53598
rclavicle 5.81135e-015 -1.10574e-014
rhumerus -44.3223 11.3315 -86.4901
rradius 34.8114
rwrist 22.2574
rhand 2.05465 -54.7501
rfingers 7.12502
rthumb 27.5569 -802.753
lclavicle 5.81135e-015 -1.10574e-014
lhumerus -31.9908 1.79893 75.8575
lradius 47.2269
lwrist 3.28661
lhand -7.22552 -38.0278
lfingers 7.12502
lthumb 18.6539 -8.90218
rfemur -0.640333 17.7191 27.5103
rtibia 16.3542
rfoot -18.7192 -26.997
rtoes -8.16687
lfemur -6.6148 -18.3045 -25.2882
ltibia 23.8798
lfoot -30.0017 18.6623
ltoes -25.9831
475
root 8.51069 15.4943 19.7682 358.726 1.13588 -0.0266501
lowerback 7.8569 1.09488 0.438863
upperback -3.72241 1.51874 0.00655015
thorax -8.33381 0.716773 -0.466507
lowerneck -5.77239 -3.71145 -8.79526
upperneck 8.11108 -4.88409 7.78545
head 3.76568 -2.33743 3.55982
rclavicle -2.50407e-014 1.86858e-014
rhumerus -44.4029 10.4879 -85.9675
rradius 34.6335
rwrist 23.1757
rhand 2.87456 -55.2062
rfingers 7.12502
rthumb 28.3407 -803.081
lclavicle -2.50407e-014 1.86858e-014
lhumerus -31.7387 1.67085 75.8554
lradius 46.7119
lwrist 2.58672
lhand -7.73591 -37.6888
lfingers 7.12502
lthumb 18.1629 -8.51678
rfemur -0.505049 17.7513 27.5476
rtibia 16.2543
rfoot -18.6551 -27.0284
rtoes -8.85834
lfemur -6.54275 -18.1923 -25.3002
ltibia 23.9226
lfoot -29.7613 18.7032
ltoes -25.3761
476
root 8.50986 15.4938 19.7763 358.718 0.984274 -0.0390863
lowerback 7.84511 1.05464 0.46889
upperback -3.75425 1.46718 -0.00782948
thorax -8.36065 0.689327 -0.491049
lowerneck -5.83905 -3.66587 -8.78242
upperneck 8.34781 -4.83345 7.82013
head 3.84429 -2.30921 3.57032
rclavicle -1.43684e-014 4.08751e-015
rhumerus -44.4394 9.83922 -85.6437
rradius 34.2919
rwrist 23.2495
rhand 1.48395 -54.9039
rfingers 7.12502
rthumb 27.011 -802.993
lclavicle -1.43684e-014 4.08751e-015
lhumerus -31.623 1.68629 75.8585
lradius 46.4297
lwrist 2.03909
lhand -8.04791 -37.2778
lfingers 7.12502
lthumb 17.8627 -8.07814
rfemur -0.44945 17.7703 27.5844
rtibia 16.2317
rfoot -18.3707 -27.0917
rtoes -9.56067
lfemur -6.4977 -18.0919 -25.3002
ltibia 23.9102
lfoot -29.4598 18.2111
ltoes -22.4571
477
root 8.50988 15.4945 19.785 358.725 0.828976 0.00693023
lowerback 7.85445 1.01483 0.456723
upperback -3.8019 1.41034 -0.0383182
thorax -8.4177 0.660899 -0.508785
lowerneck -5.95722 -3.60259 -8.60195
upperneck 8.62578 -4.74675 7.59007
head 3.93092 -2.26904 3.47269
rclavicle -1.55984e-014 -9.60378e-015
rhumerus -44.4091 9.47032 -85.4528
rradius 33.8814
rwrist 23.2763
rhand 0.558666 -55.006
rfingers 7.12502
rthumb 26.1254 -803.229
lclavicle -1.55984e-014 -9.60378e-015
lhumerus -31.6048 1.91121 75.8762
lradius 46.1755
lwrist 1.51538
lhand -8.09683 -37.2201
lfingers 7.12502
lthumb 17.8157 -8.01618
rfemur -0.472351 17.7772 27.5336
rtibia 16.2991
rfoot -18.2322 -27.0786
rtoes -10.1156
lfemur -6.43769 -17.9662 -25.3624
ltibia 23.8402
lfoot -28.7273 19.3461
ltoes -27.6554
478
root 8.51081 15.4937 19.7939 358.755 0.622761 0.147538
lowerback 7.76956 1.01043 0.346592
upperback -3.8269 1.38726 -0.0936364
thorax -8.39651 0.654157 -0.500466
lowerneck -6.09871 -3.52816 -8.31824
upperneck 8.98098 -4.64337 7.23139
head 4.03871 -2.22323 3.31901
rclavicle -3.98423e-015 -1.5791e-014
rhumerus -44.3521 9.06991 -85.2186
rradius 33.5282
rwrist 23.5854
rhand 0.436383 -55.2674
rfingers 7.12502
rthumb 26.0083 -803.507
lclavicle -3.98423e-015 -1.5791e-014
lhumerus -31.5746 2.0613 75.9282
lradius 45.9279
lwrist 1.16845
lhand -8.15881 -37.3043
lfingers 7.12502
lthumb 17.756 -8.09497
rfemur -0.578838 17.8109 27.3685
rtibia 16.5057
rfoot -18.3673 -27.0338
rtoes -10.8694
lfemur -6.3353 -17.7534 -25.5124
ltibia 23.6767
lfoot -28.2987 19.8572
ltoes -29.0817
479
root 8.51289 15.4934 19.8008 358.841 0.429545 0.280725
lowerback 7.59369 0.98793 0.246861
upperback -3.81815 1.34182 -0.137702
thorax -8.28583 0.63684 -0.480482
lowerneck -6.43894 -3.42884 -7.86146
upperneck 9.45164 -4.49635 6.70835
head 4.20495 -2.15498 3.08607
rclavicle 4.32434e-015 3.72721e-017
rhumerus -44.2137 8.6278 -84.9658
rradius 33.1757
rwrist 24.0096
rhand 0.360438 -55.2094
rfingers 7.12502
rthumb 25.9356 -803.46
lclavicle 4.32434e-015 3.72721e-017
lhumerus -31.5536 2.16049 76.0036
lradius 45.8584
lwrist 1.08559
lhand -8.32315 -37.0267
lfingers 7.12502
lthumb 17.5979 -7.80312
rfemur -0.67884 17.8258 27.1822
rtibia 16.5677
rfoot -18.5236 -26.9291
rtoes -11.2714
lfemur -6.34816 -17.5185 -25.6316
ltibia 23.6024
lfoot -27.9374 19.9512
ltoes -28.8713
